<svg xmlns="http://www.w3.org/2000/svg" viewBox="0 0 537.8 120"><g transform="translate(26,0)"><path d="M 95.90 51.05 A 37 37 0 1 1 68.95 24.10" fill="none" stroke="#111726" stroke-width="12.5" stroke-linecap="round"/><circle cx="86.16" cy="33.84" r="7.2" fill="#DEA82F"/></g><g transform="translate(180,87.0)"><path d="M8.0 0.0V-73.5H17.8397705078125V0.0Z M53.670019531250006 1.4399902343750002Q48.22007446289062 1.4399902343750002 44.45008850097656 -0.30998535156249996Q40.6801025390625 -2.0599609375 38.27509155273438 -4.909933471679688Q35.87008056640625 -7.759906005859375 34.56005859375 -11.164895629882812Q33.25003662109375 -14.56988525390625 32.75001831054688 -17.949911499023436Q32.25 -21.329937744140626 32.25 -24.06002197265625V-54.0H42.209765625V-27.259924316406252Q42.209765625 -23.849829101562502 42.79978942871094 -20.424795532226565Q43.38981323242187 -16.999761962890627 44.93984375 -14.14976501464844Q46.48987426757813 -11.299768066406251 49.22489624023438 -9.58978271484375Q51.95991821289063 -7.87979736328125 56.249914550781256 -7.87979736328125Q59.27999267578125 -7.87979736328125 61.87002868652344 -8.899826049804688Q64.46006469726564 -9.919854736328126 66.37007446289063 -12.064889526367189Q68.28008422851562 -14.209924316406251 69.3550811767578 -17.614944458007812Q70.430078125 -21.019964599609377 70.430078125 -25.75994873046875L76.66998291015625 -23.58004150390625Q76.66998291015625 -16.039971923828126 73.88997192382813 -10.409970092773438Q71.1099609375 -4.77996826171875 65.9649658203125 -1.669989013671875Q60.819970703125 1.4399902343750002 53.670019531250006 1.4399902343750002ZM71.5700439453125 0.0V-15.13983154296875H70.430078125V-54.0H80.32984619140626V0.0Z M159.38997802734377 0.0 159.42998046875 -34.02012939453125Q159.42998046875 -39.93016357421875 156.33494567871094 -43.265185546875Q153.2399108886719 -46.60020751953125 148.2498779296875 -46.60020751953125Q145.25986938476564 -46.60020751953125 142.6898406982422 -45.22520446777344Q140.11981201171875 -43.85020141601563 138.52478637695313 -41.04517517089844Q136.9297607421875 -38.24014892578125 136.9297607421875 -33.980078125L132.0298095703125 -36.2599853515625Q131.92980346679687 -41.9699951171875 134.43479614257814 -46.279998779296875Q136.93978881835938 -50.590002441406256 141.2747833251953 -52.98500366210938Q145.60977783203126 -55.3800048828125 151.00977783203126 -55.3800048828125Q159.61973876953124 -55.3800048828125 164.4447448730469 -50.17502136230469Q169.2697509765625 -44.97003784179688 169.2697509765625 -36.300048828125L169.22974853515626 0.0ZM94.69000244140625 0.0V-54.0H103.4498046875V-38.86016845703125H104.5897705078125V0.0ZM127.089990234375 0.0 127.12999267578125 -33.7401123046875Q127.12999267578125 -39.750152587890625 124.06495971679688 -43.17518005371094Q120.9999267578125 -46.60020751953125 115.86988525390625 -46.60020751953125Q110.79983520507812 -46.60020751953125 107.6948028564453 -43.12517395019532Q104.5897705078125 -39.650140380859376 104.5897705078125 -33.980078125L99.6898193359375 -37.02001953125Q99.6898193359375 -42.28001708984375 102.21981201171874 -46.43001403808594Q104.7498046875 -50.580010986328126 109.08479614257813 -52.98000793457031Q113.41978759765625 -55.3800048828125 118.88978271484375 -55.3800048828125Q124.51973876953124 -55.3800048828125 128.56473693847656 -52.99002380371094Q132.60973510742187 -50.60004272460938 134.76974792480468 -46.28005371093751Q136.9297607421875 -41.96006469726563 136.9297607421875 -36.18004150390625L136.88975830078124 0.0Z M205.90993652343752 1.5Q197.8199401855469 1.5 191.92995605468752 -2.1500000000000004Q186.03997192382812 -5.800000000000001 182.84498596191406 -12.235000610351562Q179.65 -18.670001220703124 179.65 -27.04000244140625Q179.65 -35.510003662109376 182.9099853515625 -41.92500305175781Q186.16997070312502 -48.340002441406256 192.06995544433596 -51.92000122070313Q197.96994018554688 -55.5 205.90993652343752 -55.5Q214.01993408203126 -55.5 219.92491760253907 -51.86000061035156Q225.82990112304688 -48.220001220703125 229.02988586425784 -41.80500183105469Q232.22987060546876 -35.39000244140625 232.22987060546876 -27.04000244140625Q232.22987060546876 -18.579998779296876 229.00488586425783 -12.154998779296875Q225.7799011230469 -5.729998779296875 219.86491699218752 -2.1149993896484376Q213.94993286132814 1.5 205.90993652343752 1.5ZM205.90993652343752 -7.79979248046875Q213.92002563476564 -7.79979248046875 217.85506896972657 -13.164849853515625Q221.7901123046875 -18.5299072265625 221.7901123046875 -27.04000244140625Q221.7901123046875 -35.780096435546874 217.81506958007813 -40.990151977539064Q213.84002685546875 -46.200207519531254 205.90993652343752 -46.200207519531254Q200.4998779296875 -46.200207519531254 196.99983825683594 -43.7601806640625Q193.4997985839844 -41.32015380859375 191.79477844238284 -37.010107421875006Q190.08975830078126 -32.70006103515625 190.08975830078126 -27.04000244140625Q190.08975830078126 -18.289910888671876 194.10480346679688 -13.044851684570313Q198.1198486328125 -7.79979248046875 205.90993652343752 -7.79979248046875Z M243.65 0.0V-54.0H252.40980224609376V-40.92000732421875L251.10980224609375 -42.620007324218754Q252.07979736328124 -45.17999267578125 253.64978637695313 -47.319982910156256Q255.21977539062502 -49.459973144531254 257.24974365234374 -50.8399658203125Q259.29974975585935 -52.41998901367188 261.88976745605464 -53.275000000000006Q264.47978515625 -54.13001098632813 267.1697998046875 -54.30501098632813Q269.859814453125 -54.480010986328125 272.2698120117187 -54.0V-44.78021240234375Q269.57978515625 -45.500213623046875 266.2947662353516 -45.175207519531256Q263.00974731445314 -44.85020141601563 260.2697265625 -42.960156250000004Q257.68971557617186 -41.24011840820313 256.22972717285154 -38.765078735351565Q254.76973876953124 -36.2900390625 254.15975341796874 -33.335009765625Q253.54976806640624 -30.379980468750002 253.54976806640624 -27.1999755859375V0.0Z M297.4300170898437 1.5Q291.43000488281245 1.5 287.35500183105466 -0.7149993896484377Q283.2799987792969 -2.9299987792968754 281.2149993896484 -6.604995727539063Q279.15 -10.279992675781251 279.15 -14.6599853515625Q279.15 -18.810009765625 280.6700225830078 -21.920010375976563Q282.1900451660156 -25.030010986328126 285.07506408691404 -27.17499694824219Q287.9600830078125 -29.319982910156252 292.1100708007812 -30.599963378906253Q295.79011230468745 -31.639959716796877 300.430142211914 -32.43995666503906Q305.0701721191406 -33.23995361328125 310.04015502929684 -33.904946899414064Q315.0101379394531 -34.569940185546876 319.6900390625 -35.25992431640625L316.1501220703125 -33.2399658203125Q316.2501281738281 -39.94008178710938 313.380093383789 -43.16014099121094Q310.51005859375 -46.380200195312504 303.50996093749995 -46.380200195312504Q298.9898681640625 -46.380200195312504 295.3898468017578 -44.30016174316407Q291.7898254394531 -42.220123291015625 290.3498168945312 -37.50006103515625L281.1300048828125 -40.3199951171875Q283.07999877929683 -47.3400146484375 288.6999969482422 -51.42000732421875Q294.3199951171875 -55.5 303.5899658203125 -55.5Q310.8799743652344 -55.5 316.2099609375 -52.95997924804688Q321.5399475097656 -50.419958496093756 323.96992187499995 -45.09996337890625Q325.20989990234375 -42.49998779296875 325.5098999023437 -39.559991455078126Q325.8098999023437 -36.6199951171875 325.8098999023437 -33.320019531250004V0.0H317.11009521484374V-12.58009033203125L318.9301025390625 -11.160144042968751Q315.70014648437495 -4.810089111328125 310.3951019287109 -1.6550445556640625Q305.0900573730469 1.5 297.4300170898437 1.5ZM299.08994140625 -6.59984130859375Q303.67999267578125 -6.59984130859375 307.0150390625 -8.234860229492188Q310.35008544921874 -9.869879150390625 312.3751159667969 -12.479934692382812Q314.400146484375 -15.089990234375001 315.0301513671875 -18.000097656250002Q315.82013549804685 -20.440112304687503 315.9251312255859 -23.47511901855469Q316.030126953125 -26.510125732421876 316.030126953125 -28.2401123046875L319.31008300781247 -26.96009521484375Q314.620166015625 -26.260113525390626 310.50014343261716 -25.68511962890625Q306.38012084960934 -25.110125732421878 302.9200500488281 -24.510122680664065Q299.45997924804686 -23.91011962890625 296.72991943359375 -23.10010986328125Q294.5499084472656 -22.380114746093753 292.7748748779296 -21.305105590820315Q290.9998413085937 -20.230096435546876 289.9448120117187 -18.63006591796875Q288.8897827148437 -17.030035400390627 288.8897827148437 -14.739978027343751Q288.8897827148437 -12.589959716796876 289.96479187011715 -10.734927368164064Q291.0398010253906 -8.87989501953125 293.2898345947265 -7.7398681640625Q295.53986816406245 -6.59984130859375 299.08994140625 -6.59984130859375Z" fill="#111726"/></g></svg>